<svg
    xmlns="http://www.w3.org/2000/svg"
    viewBox="0 0 647 632"
    id="vector">
    <path
        id="path"
        d="M 411.15 142.17 L 236.64 142.17 C 232.665 142.175 228.85 143.758 226.039 146.569 C 223.228 149.38 221.645 153.195 221.64 157.17 L 221.64 545.02 L 219.64 545.63 L 176.83 558.74 C 174.802 559.358 172.609 559.145 170.737 558.15 C 168.865 557.155 167.463 555.457 166.84 553.43 L 39.5 137.48 C 38.88 135.452 39.091 133.258 40.086 131.385 C 41.081 129.513 42.782 128.11 44.81 127.49 L 110.78 107.29 L 302.03 48.75 L 368 28.55 C 369.342 28.137 370.769 28.085 372.137 28.399 C 373.506 28.714 374.767 29.383 375.795 30.34 C 376.822 31.297 377.579 32.507 377.99 33.85 L 410.54 140.17 Z"
        fill="#f2f2f2"/>
    <path
        id="path_1"
        d="M 449.23 140.17 L 410 12.03 C 409.128 9.176 407.52 6.601 405.337 4.566 C 403.154 2.531 400.473 1.107 397.565 0.437 C 394.657 -0.233 391.623 -0.125 388.77 0.75 L 296.02 29.14 L 104.78 87.69 L 12.03 116.09 C 7.724 117.414 4.115 120.394 2.001 124.373 C -0.113 128.351 -0.563 133.011 0.75 137.32 L 134.83 575.25 C 135.899 578.729 138.055 581.776 140.981 583.94 C 143.906 586.105 147.45 587.276 151.09 587.28 C 152.775 587.281 154.45 587.028 156.06 586.53 L 219.64 567.07 L 221.64 566.45 L 221.64 564.36 L 219.64 564.97 L 155.47 584.62 C 151.668 585.78 147.557 585.384 144.047 583.519 C 140.537 581.655 137.907 578.47 136.74 574.67 L 2.67 136.73 C 1.896 134.213 1.8 131.536 2.39 128.97 C 2.981 126.404 4.237 124.038 6.033 122.112 C 7.829 120.187 10.101 118.768 12.62 118 L 105.37 89.6 L 296.61 31.06 L 389.36 2.66 C 390.789 2.224 392.276 2.001 393.77 2 C 396.977 2.007 400.099 3.041 402.675 4.95 C 405.252 6.859 407.15 9.544 408.09 12.61 L 447.14 140.17 L 447.76 142.17 L 449.84 142.17 Z"
        fill="#3f3d56"/>
    <path
        id="path_2"
        d="M 122.68 127.82 C 120.753 127.817 118.876 127.197 117.327 126.051 C 115.778 124.905 114.636 123.292 114.07 121.45 L 101.19 79.38 C 100.492 77.099 100.728 74.631 101.847 72.524 C 102.966 70.417 104.879 68.839 107.16 68.14 L 283.1 14.28 C 285.381 13.584 287.848 13.822 289.954 14.941 C 292.061 16.06 293.639 17.97 294.34 20.25 L 307.22 62.32 C 307.916 64.601 307.678 67.068 306.559 69.174 C 305.44 71.281 303.53 72.859 301.25 73.56 L 125.31 127.43 C 124.458 127.69 123.571 127.821 122.68 127.82 Z"
        fill="#17ce92"/>
    <path
        id="path_3"
        d="M 190.15 24.95 M 170.15 24.95 C 170.15 19.648 172.259 14.557 176.008 10.808 C 179.757 7.059 184.848 4.95 190.15 4.95 C 195.452 4.95 200.543 7.059 204.292 10.808 C 208.041 14.557 210.15 19.648 210.15 24.95 C 210.15 30.252 208.041 35.343 204.292 39.092 C 200.543 42.841 195.452 44.95 190.15 44.95 C 184.848 44.95 179.757 42.841 176.008 39.092 C 172.259 35.343 170.15 30.252 170.15 24.95"
        fill="#17ce92"/>
    <path
        id="path_4"
        d="M 190.15 24.95 M 177.49 24.95 C 177.482 22.27 178.324 19.656 179.895 17.485 C 181.466 15.314 183.686 13.697 186.234 12.867 C 188.782 12.038 191.528 12.038 194.076 12.867 C 196.624 13.697 198.844 15.314 200.415 17.485 C 201.986 19.656 202.828 22.27 202.82 24.95 C 202.828 27.63 201.986 30.244 200.415 32.415 C 198.844 34.586 196.624 36.203 194.076 37.033 C 191.528 37.862 188.782 37.862 186.234 37.033 C 183.686 36.203 181.466 34.586 179.895 32.415 C 178.324 30.244 177.482 27.63 177.49 24.95"
        fill="#ffffff"/>
    <path
        id="path_5"
        d="M 602.64 582.17 L 264.64 582.17 C 262.387 582.167 260.225 581.27 258.633 579.677 C 257.04 578.085 256.143 575.923 256.14 573.67 L 256.14 168.67 C 256.143 166.417 257.04 164.255 258.633 162.663 C 260.225 161.07 262.387 160.173 264.64 160.17 L 602.64 160.17 C 604.893 160.173 607.055 161.07 608.647 162.663 C 610.24 164.255 611.137 166.417 611.14 168.67 L 611.14 573.67 C 611.137 575.923 610.24 578.085 608.647 579.677 C 607.055 581.27 604.893 582.167 602.64 582.17 Z"
        fill="#f2f2f2"/>
    <path
        id="path_6"
        d="M 447.14 140.17 L 236.64 140.17 C 232.135 140.175 227.811 141.969 224.625 145.155 C 221.439 148.341 219.645 152.665 219.64 157.17 L 219.64 564.97 L 221.64 564.36 L 221.64 157.17 C 221.645 153.195 223.228 149.38 226.039 146.569 C 228.85 143.758 232.665 142.175 236.64 142.17 L 447.76 142.17 Z M 630.64 140.17 L 236.64 140.17 C 232.135 140.175 227.811 141.969 224.625 145.155 C 221.439 148.341 219.645 152.665 219.64 157.17 L 219.64 615.17 C 219.645 619.675 221.439 623.999 224.625 627.185 C 227.811 630.371 232.135 632.165 236.64 632.17 L 630.64 632.17 C 635.145 632.165 639.469 630.371 642.655 627.185 C 645.841 623.999 647.635 619.675 647.64 615.17 L 647.64 157.17 C 647.635 152.665 645.841 148.341 642.655 145.155 C 639.469 141.969 635.145 140.175 630.64 140.17 Z M 645.64 615.17 C 645.635 619.145 644.052 622.96 641.241 625.771 C 638.43 628.582 634.615 630.165 630.64 630.17 L 236.64 630.17 C 232.665 630.165 228.85 628.582 226.039 625.771 C 223.228 622.96 221.645 619.145 221.64 615.17 L 221.64 157.17 C 221.645 153.195 223.228 149.38 226.039 146.569 C 228.85 143.758 232.665 142.175 236.64 142.17 L 630.64 142.17 C 634.615 142.175 638.43 143.758 641.241 146.569 C 644.052 149.38 645.635 153.195 645.64 157.17 Z"
        fill="#3f3d56"/>
    <path
        id="path_7"
        d="M 525.64 184.17 L 341.64 184.17 C 339.255 184.167 336.966 183.218 335.279 181.531 C 333.592 179.844 332.643 177.555 332.64 175.17 L 332.64 131.17 C 332.643 128.785 333.592 126.496 335.279 124.809 C 336.966 123.122 339.255 122.173 341.64 122.17 L 525.64 122.17 C 528.025 122.173 530.314 123.122 532.001 124.809 C 533.688 126.496 534.637 128.785 534.64 131.17 L 534.64 175.17 C 534.637 177.555 533.688 179.844 532.001 181.531 C 530.314 183.218 528.025 184.167 525.64 184.17 Z"
        fill="#17ce92"/>
    <path
        id="path_8"
        d="M 433.64 105.17 M 413.64 105.17 C 413.64 99.868 415.749 94.777 419.498 91.028 C 423.247 87.279 428.338 85.17 433.64 85.17 C 438.942 85.17 444.033 87.279 447.782 91.028 C 451.531 94.777 453.64 99.868 453.64 105.17 C 453.64 110.472 451.531 115.563 447.782 119.312 C 444.033 123.061 438.942 125.17 433.64 125.17 C 428.338 125.17 423.247 123.061 419.498 119.312 C 415.749 115.563 413.64 110.472 413.64 105.17"
        fill="#17ce92"/>
    <path
        id="path_9"
        d="M 433.64 105.17 M 421.46 105.17 C 421.452 102.593 422.262 100.079 423.773 97.991 C 425.283 95.903 427.418 94.348 429.869 93.55 C 432.319 92.752 434.961 92.752 437.411 93.55 C 439.862 94.348 441.997 95.903 443.507 97.991 C 445.018 100.079 445.828 102.593 445.82 105.17 C 445.828 107.747 445.018 110.261 443.507 112.349 C 441.997 114.437 439.862 115.992 437.411 116.79 C 434.961 117.588 432.319 117.588 429.869 116.79 C 427.418 115.992 425.283 114.437 423.773 112.349 C 422.262 110.261 421.452 107.747 421.46 105.17"
        fill="#ffffff"/>
</svg>
